<?xml version="1.0" encoding="utf-8"?>
<!-- Generator: Adobe Illustrator 19.2.0, SVG Export Plug-In . SVG Version: 6.00 Build 0)  -->
<svg version="1.1" id="Layer_1" xmlns="http://www.w3.org/2000/svg" xmlns:xlink="http://www.w3.org/1999/xlink" x="0px" y="0px"
	 viewBox="0 0 3000 3000" style="enable-background:new 0 0 3000 3000;" xml:space="preserve">
<style type="text/css">
	.st0{fill:none;stroke:#000000;stroke-width:45;stroke-miterlimit:10;}
	.st1{fill:none;stroke:#000000;stroke-width:25;stroke-miterlimit:10;}
</style>
<g>
	<path class="st0" d="M677.5,92.6c-14-8.7-37-8.7-51,0L170.7,375.8c-14,8.7-12,15.8,4.5,15.8h953.5c16.5,0,18.5-7.1,4.5-15.8
		L677.5,92.6z"/>
</g>
<circle class="st0" cx="652" cy="257.9" r="47.3"/>
<path class="st0" d="M288.6,1136h-9.4c-27.5,0-50-22.5-50-50V512.9c0-27.5,22.5-50,50-50h9.4c27.5,0,50,22.5,50,50V1086
	C338.6,1113.5,316.1,1136,288.6,1136z"/>
<path class="st0" d="M523.7,1136h-9.4c-27.5,0-50-22.5-50-50V512.9c0-27.5,22.5-50,50-50h9.4c27.5,0,50,22.5,50,50V1086
	C573.7,1113.5,551.2,1136,523.7,1136z"/>
<path class="st0" d="M758.7,1136h-9.4c-27.5,0-50-22.5-50-50V512.9c0-27.5,22.5-50,50-50h9.4c27.5,0,50,22.5,50,50V1086
	C808.7,1113.5,786.2,1136,758.7,1136z"/>
<path class="st0" d="M999,1136h-9.4c-27.5,0-50-22.5-50-50V512.9c0-27.5,22.5-50,50-50h9.4c27.5,0,50,22.5,50,50V1086
	C1049,1113.5,1026.5,1136,999,1136z"/>
<path class="st0" d="M1112.4,1234.4H185.3c-6.1,0-11.1-5-11.1-11.1l0,0c0-6.1,5-11.1,11.1-11.1h927.1c6.1,0,11.1,5,11.1,11.1l0,0
	C1123.5,1229.4,1118.5,1234.4,1112.4,1234.4z"/>
<path class="st1" d="M1201.8,1327.6H95.9c-3.7,0-6.7-3-6.7-6.7l0,0c0-3.7,3-6.7,6.7-6.7h1105.9c3.7,0,6.7,3,6.7,6.7l0,0
	C1208.5,1324.6,1205.5,1327.6,1201.8,1327.6z"/>
<path class="st1" d="M1276.8,1419.8H27.5c-4.1,0-7.5-3.4-7.5-7.5l0,0c0-4.1,3.4-7.5,7.5-7.5h1249.3c4.1,0,7.5,3.4,7.5,7.5l0,0
	C1284.4,1416.4,1281,1419.8,1276.8,1419.8z"/>
</svg>
