<?xml version="1.0" encoding="utf-8"?>
<!-- Generator: Adobe Illustrator 19.2.0, SVG Export Plug-In . SVG Version: 6.00 Build 0)  -->
<svg version="1.1" id="Layer_1" xmlns="http://www.w3.org/2000/svg" xmlns:xlink="http://www.w3.org/1999/xlink" x="0px" y="0px"
	 viewBox="0 0 500 500" style="enable-background:new 0 0 500 500;" xml:space="preserve">
<style type="text/css">
	.st0{fill:none;stroke:#000000;stroke-width:6;stroke-miterlimit:10;}
	.st1{fill:none;stroke:#000000;stroke-width:4;stroke-miterlimit:10;}
	.st2{fill:none;stroke:#000000;stroke-width:7;stroke-miterlimit:10;}
	.st3{fill:none;stroke:#000000;stroke-width:7;stroke-linecap:round;stroke-miterlimit:10;}
	.st4{fill:#FFFFFF;stroke:#FFFFFF;stroke-linecap:round;stroke-miterlimit:10;}
	.st5{fill:#FFFFFF;stroke:#FFFFFF;stroke-miterlimit:10;}
	.st6{fill:none;stroke:#FFFFFF;stroke-width:6;stroke-miterlimit:10;}
</style>
<circle class="st0" cx="288.1" cy="169" r="11.8"/>
<path class="st0" d="M198.7,388.7h-7.5c-5.5,0-10-4.5-10-10V230.2c0-5.5,4.5-10,10-10h7.5c5.5,0,10,4.5,10,10v148.5
	C208.7,384.2,204.2,388.7,198.7,388.7z"/>
<path class="st0" d="M261.5,388.7H254c-5.5,0-10-4.5-10-10V230.2c0-5.5,4.5-10,10-10h7.5c5.5,0,10,4.5,10,10v148.5
	C271.5,384.2,267,388.7,261.5,388.7z"/>
<path class="st0" d="M322.3,388.7h-7.5c-5.5,0-10-4.5-10-10V230.2c0-5.5,4.5-10,10-10h7.5c5.5,0,10,4.5,10,10v148.5
	C332.3,384.2,327.8,388.7,322.3,388.7z"/>
<path class="st0" d="M382.4,388.7H375c-5.5,0-10-4.5-10-10V230.2c0-5.5,4.5-10,10-10h7.5c5.5,0,10,4.5,10,10v148.5
	C392.4,384.2,387.9,388.7,382.4,388.7z"/>
<path class="st1" d="M401,411.8H167.5c-1.1,0-2-0.9-2-2l0,0c0-1.1,0.9-2,2-2H401c1.1,0,2,0.9,2,2l0,0
	C403,410.9,402.1,411.8,401,411.8z"/>
<path class="st0" d="M423.1,432.6H145.5c-0.7,0-1.2-0.5-1.2-1.2v-0.9c0-0.7,0.5-1.2,1.2-1.2h277.6c0.7,0,1.2,0.5,1.2,1.2v0.9
	C424.3,432.1,423.7,432.6,423.1,432.6z"/>
<path class="st2" d="M441.9,456.7H128.3c-0.8,0-1.4-0.6-1.4-1.4v-1c0-0.8,0.6-1.4,1.4-1.4h313.6c0.8,0,1.4,0.6,1.4,1.4v1
	C443.3,456.1,442.7,456.7,441.9,456.7z"/>
<g>
	<path class="st3" d="M295.2,118.3c-4.5-3.2-11.7-3.2-16.2,0L171.5,196c-4.5,3.2-3.6,5.9,1.9,5.9h227.3c5.5,0,6.4-2.6,1.9-5.9
		L295.2,118.3z"/>
</g>
<path class="st4" d="M368.6,189.7l-73.8-53.3c-2.4-1.8-3-5.2-1.2-7.6l0,0c1.8-2.4,5.2-3,7.6-1.2l73.8,53.3c2.4,1.8,3,5.2,1.2,7.6h0
	C374.5,190.9,371.1,191.5,368.6,189.7z"/>
<circle class="st0" cx="86.1" cy="298.1" r="21.7"/>
<path class="st4" d="M378.7,368.9V239.4c0-3,2.5-5.5,5.5-5.5l0,0c3,0,5.5,2.5,5.5,5.5v129.5c0,3-2.5,5.5-5.5,5.5l0,0
	C381.2,374.4,378.7,371.9,378.7,368.9z"/>
<g>
	<path class="st5" d="M137.4,124.8H94.8c-2.5,0-4.5,2-4.5,4.5l0,0c0,2.5,2,4.5,4.5,4.5h42.6c2.5,0,4.5-2,4.5-4.5l0,0
		C141.9,126.9,139.9,124.8,137.4,124.8z"/>
	<path class="st5" d="M120.6,150.4v-42.6c0-2.5-2-4.5-4.5-4.5h0c-2.5,0-4.5,2-4.5,4.5v42.6c0,2.5,2,4.5,4.5,4.5h0
		C118.6,154.9,120.6,152.9,120.6,150.4z"/>
</g>
<path class="st5" d="M422,334.3h42.6c2.5,0,4.5-2,4.5-4.5l0,0c0-2.5-2-4.5-4.5-4.5H422c-2.5,0-4.5,2-4.5,4.5l0,0
	C417.5,332.3,419.5,334.3,422,334.3z"/>
<circle class="st6" cx="414.5" cy="112.4" r="16.7"/>
<circle class="st0" cx="116.1" cy="250" r="10.9"/>
</svg>
