<?xml version="1.0" encoding="utf-8"?>
<!-- Generator: Adobe Illustrator 19.2.0, SVG Export Plug-In . SVG Version: 6.00 Build 0)  -->
<svg version="1.1" xmlns="http://www.w3.org/2000/svg" xmlns:xlink="http://www.w3.org/1999/xlink" x="0px" y="0px"
	 viewBox="0 0 500 500" style="enable-background:new 0 0 500 500;" xml:space="preserve">
<style type="text/css">
	.st0{fill:#FFFFFF;stroke:#FFFFFF;stroke-miterlimit:10;}
	.st1{fill:none;stroke:#000000;stroke-width:7;stroke-miterlimit:10;}
	.st2{stroke:#000000;stroke-width:5;stroke-miterlimit:10;}
	.st3{fill:none;stroke:#000000;stroke-width:5;stroke-miterlimit:10;}
	.st4{fill:#F3FAFB;stroke:#FFFFFF;stroke-width:5;stroke-miterlimit:10;}
	.st5{fill:#7BC6C4;stroke:#000000;stroke-width:5;stroke-miterlimit:10;}
	.st6{fill:none;stroke:#FFFFFF;stroke-width:7;stroke-miterlimit:10;}
</style>
<g id="Layer_2">
	<g>
		<path class="st0" d="M72.8,208.3L42.9,178c-1.8-1.8-4.6-1.8-6.4,0h0c-1.8,1.8-1.8,4.6,0,6.4l29.9,30.3c1.8,1.8,4.6,1.8,6.4,0h0
			C74.6,212.9,74.6,210,72.8,208.3z"/>
		<path class="st0" d="M42.9,214.3l30.3-29.9c1.8-1.8,1.8-4.6,0-6.4h0c-1.8-1.8-4.6-1.8-6.4,0l-30.3,29.9c-1.8,1.8-1.8,4.6,0,6.4h0
			C38.2,216.1,41.1,216.1,42.9,214.3z"/>
	</g>
	<g>
		<path class="st0" d="M247.7,67.3h-24.8c-1.5,0-2.6,1.2-2.6,2.6v0c0,1.5,1.2,2.6,2.6,2.6h24.8c1.5,0,2.6-1.2,2.6-2.6v0
			C250.3,68.5,249.1,67.3,247.7,67.3z"/>
		<path class="st0" d="M237.9,82.2V57.4c0-1.5-1.2-2.6-2.6-2.6l0,0c-1.5,0-2.6,1.2-2.6,2.6v24.8c0,1.5,1.2,2.6,2.6,2.6l0,0
			C236.7,84.9,237.9,83.7,237.9,82.2z"/>
	</g>
	<g>
		<path class="st0" d="M366.9,117.4l-26-26.3c-1.5-1.5-4-1.6-5.6,0v0c-1.5,1.5-1.6,4,0,5.6l26,26.3c1.5,1.5,4,1.6,5.6,0l0,0
			C368.4,121.5,368.4,119,366.9,117.4z"/>
		<path class="st0" d="M340.9,122.7l26.3-26c1.5-1.5,1.6-4,0-5.6v0c-1.5-1.5-4-1.6-5.6,0l-26.3,26c-1.5,1.5-1.6,4,0,5.6l0,0
			C336.8,124.2,339.3,124.3,340.9,122.7z"/>
	</g>
</g>
<g id="Layer_1">
	<path class="st1" d="M237.9,420.3H126.2c-5.2,0-9.3-4.1-9.3-9.1V267c0-5,4.1-10.7,9.3-12.6l111.7-42.6c8.4-3.2,15.4-0.5,15.4,6.1
		v190.5C253.3,414.9,246.3,420.3,237.9,420.3z"/>
	<path class="st1" d="M273.7,421.9h146.1c6.7,0,12.1-5.7,12.1-12.8V206.6c0-7-5.4-15-12.1-17.7L273.7,129
		c-10.9-4.5-20.2-0.7-20.2,8.6v267.5C253.5,414.4,262.7,421.9,273.7,421.9z"/>
	<path class="st2" d="M323,242.9h-34.7c-2.1,0-3.8-1.7-3.8-3.8l0,0c0-2.1,1.7-3.8,3.8-3.8H323c2.1,0,3.8,1.7,3.8,3.8l0,0
		C326.8,241.2,325.1,242.9,323,242.9z"/>
	<path class="st2" d="M402.8,242.9h-34.7c-2.1,0-3.8-1.7-3.8-3.8l0,0c0-2.1,1.7-3.8,3.8-3.8h34.7c2.1,0,3.8,1.7,3.8,3.8l0,0
		C406.5,241.2,404.9,242.9,402.8,242.9z"/>
	<path class="st2" d="M322.8,298.1h-34.7c-2.1,0-3.8-1.7-3.8-3.8l0,0c0-2.1,1.7-3.8,3.8-3.8h34.7c2.1,0,3.8,1.7,3.8,3.8l0,0
		C326.6,296.4,324.9,298.1,322.8,298.1z"/>
	<path class="st2" d="M402.8,298.1h-34.7c-2.1,0-3.8-1.7-3.8-3.8l0,0c0-2.1,1.7-3.8,3.8-3.8h34.7c2.1,0,3.8,1.7,3.8,3.8l0,0
		C406.5,296.4,404.9,298.1,402.8,298.1z"/>
	<path class="st2" d="M402.8,347.9h-34.7c-2.1,0-3.8-1.7-3.8-3.8l0,0c0-2.1,1.7-3.8,3.8-3.8h34.7c2.1,0,3.8,1.7,3.8,3.8l0,0
		C406.5,346.2,404.9,347.9,402.8,347.9z"/>
	<path class="st3" d="M315.9,421.9h-20.5c-6.6,0-12-5.4-12-12v-57.5c0-6.6,5.4-12,12-12h20.5c6.6,0,12,5.4,12,12v57.5
		C327.9,416.5,322.5,421.9,315.9,421.9z"/>
	<path class="st3" d="M205.9,420.9h-41.5c-6.6,0-12-5.4-12-12v-37.3c0-6.6,5.4-12,12-12h41.5c6.6,0,12,5.4,12,12v37.3
		C217.9,415.5,212.5,420.9,205.9,420.9z"/>
	<circle class="st2" cx="185.1" cy="294.6" r="16.6"/>
	<path class="st4" d="M184.7,225.7L78,267.5c-1.3,0.5-2.8-0.1-3.4-1.5l0,0c-0.5-1.3,0.1-2.8,1.5-3.4l106.7-41.8
		c1.3-0.5,2.8,0.1,3.4,1.5l0,0C186.7,223.7,186.1,225.2,184.7,225.7z"/>
	<path class="st5" d="M252.5,207.7L79.7,275.5c-1,0.4-2.2-0.1-2.6-1.1v0c-0.4-1,0.1-2.2,1.1-2.6L251,203.9c1-0.4,2.2,0.1,2.6,1.1v0
		C254.1,206.1,253.5,207.3,252.5,207.7z"/>
	<path class="st5" d="M446.7,201.3l-201.5-79.9c-1-0.4-1.5-1.6-1.1-2.6l0,0c0.4-1,1.6-1.5,2.6-1.1l201.5,79.9c1,0.4,1.5,1.6,1.1,2.6
		v0C448.9,201.2,447.7,201.8,446.7,201.3z"/>
	<path class="st4" d="M375.2,163l-127.1-50.4c-1.3-0.5-2-2-1.5-3.4v0c0.5-1.3,2-2,3.4-1.5l127.1,50.4c1.3,0.5,2,2,1.5,3.4l0,0
		C378.1,162.9,376.5,163.5,375.2,163z"/>
	<path class="st4" d="M448.8,191.8l-39.4-15.6c-1.3-0.5-2-2-1.5-3.4l0,0c0.5-1.3,2-2,3.4-1.5l39.4,15.6c1.3,0.5,2,2,1.5,3.4l0,0
		C451.6,191.6,450.1,192.3,448.8,191.8z"/>
	<path class="st2" d="M465.6,422.8H70.4c-1,0-1.8-0.8-1.8-1.8l0,0c0-1,0.8-1.8,1.8-1.8h395.1c1,0,1.8,0.8,1.8,1.8l0,0
		C467.4,421.9,466.6,422.8,465.6,422.8z"/>
	<path class="st2" d="M134.2,451.6H48.1c-1,0-1.8-0.8-1.8-1.8l0,0c0-1,0.8-1.8,1.8-1.8h86.1c1,0,1.8,0.8,1.8,1.8l0,0
		C136,450.7,135.2,451.6,134.2,451.6z"/>
	<path class="st2" d="M196.8,451.6h-29.5c-1,0-1.8-0.8-1.8-1.8l0,0c0-1,0.8-1.8,1.8-1.8h29.5c1,0,1.8,0.8,1.8,1.8l0,0
		C198.6,450.7,197.8,451.6,196.8,451.6z"/>
	<path class="st2" d="M482.2,451.6h-56.2c-1,0-1.8-0.8-1.8-1.8l0,0c0-1,0.8-1.8,1.8-1.8h56.2c1,0,1.8,0.8,1.8,1.8l0,0
		C484,450.7,483.2,451.6,482.2,451.6z"/>
	<circle class="st6" cx="127.1" cy="110.6" r="16.6"/>
</g>
</svg>
