<?xml version="1.0" encoding="utf-8"?>
<!-- Generator: Adobe Illustrator 19.2.0, SVG Export Plug-In . SVG Version: 6.00 Build 0)  -->
<svg version="1.1" id="Layer_1" xmlns="http://www.w3.org/2000/svg" xmlns:xlink="http://www.w3.org/1999/xlink" x="0px" y="0px"
	 viewBox="0 0 500 500" style="enable-background:new 0 0 500 500;" xml:space="preserve">
<style type="text/css">
	.st0{stroke:#000000;stroke-miterlimit:10;}
</style>
<path class="st0" d="M425.5,138H72.4c-19.9,0-36.2-16.3-36.2-36.2v0c0-19.9,16.3-36.2,36.2-36.2h353.1c19.9,0,36.2,16.3,36.2,36.2v0
	C461.8,121.7,445.5,138,425.5,138z"/>
<path class="st0" d="M425.5,286.2H72.4c-19.9,0-36.2-16.3-36.2-36.2v0c0-19.9,16.3-36.2,36.2-36.2h353.1c19.9,0,36.2,16.3,36.2,36.2
	v0C461.8,269.9,445.5,286.2,425.5,286.2z"/>
<path class="st0" d="M427.6,434.4H74.5c-19.9,0-36.2-16.3-36.2-36.2v0c0-19.9,16.3-36.2,36.2-36.2h353.1c19.9,0,36.2,16.3,36.2,36.2
	v0C463.8,418.1,447.5,434.4,427.6,434.4z"/>
</svg>
